<svg xmlns="http://www.w3.org/2000/svg" width="165" height="165" viewBox="0 0 165 165">
    <g fill="none" fill-rule="evenodd" transform="matrix(-1 0 0 1 165 0)">
        <circle cx="82.424" cy="82.424" r="82.424" fill="#00BFD6"/>
        <path fill="#FFF" d="M125.441 99.96L82.667 57.185l2.585-2.586L39.677 9.024a21.59 21.59 0 0 0-30.654 0 21.59 21.59 0 0 0 0 30.653L54.626 85.28l2.559-2.56 42.774 42.775 25.482-25.535z"/>
        <path fill="#FB3449" d="M16.215 32.458c-4.39-4.39-4.39-11.583 0-16.215 4.39-4.39 11.583-4.39 16.216 0L70.84 54.6 54.6 70.573 16.215 32.458z"/>
        <path fill="#FFF" d="M147.34 123.125l-18.801-11.34-16.754 16.754 11.34 18.801 39.137 14.922z"/>
        <g fill="#193651">
            <path d="M88.191 76.156L76.344 88.003l-3.638-3.638 11.847-11.847zM98.516 86.462L86.67 98.309l-3.638-3.638 11.847-11.847zM108.823 96.752l-11.847 11.847-3.638-3.638 11.846-11.847zM133.93 130.33l-3.639 3.637-3.637-3.639 3.638-3.637zM142.924 139.35l-3.638 3.638-3.638-3.638 3.638-3.638z"/>
        </g>
        <path fill="#FB3449" d="M109.468 130.855l-7.73-7.73 21.387-21.388 7.73 7.73"/>
        <path fill="#193651" d="M164.58 161.24l-14.95-39.166c-.27-.511-.512-1.024-1.024-1.293l-18.29-11.07 2.317-2.317-5.657-5.657 2.047-2.047-42.747-42.505 2.586-2.586L43.26 9.024c2.586-1.805 6.169-1.536 8.512.511l32.7 32.7c2.317 2.318 5.145 3.34 8.243 3.34 3.098 0 5.926-1.023 8.242-3.34l-3.61-3.609c-2.585 2.586-6.706 2.586-9.265 0l-32.7-32.7c-2.317-2.317-5.145-3.34-8.243-3.34-2.828 0-5.414 1.024-7.73 2.828C35.285 1.804 29.871 0 24.214 0 17.778 0 11.582 2.586 7.22 7.219c-9.536 9.535-9.536 24.996 0 34.262l47.38 47.38 2.586-2.585 42.748 42.774 2.047-2.074 5.656 5.657 2.317-2.317 11.07 18.29c.27.512.782.781 1.294 1.024l39.192 14.95c.269.268 2.316 0 2.828-.513.242-.754.78-1.805.242-2.828zM53.305 80.376L10.828 37.872c-7.46-7.461-7.46-19.582 0-27.044 3.61-3.61 8.243-5.656 13.387-5.656 5.145 0 9.778 2.074 13.657 5.656L80.62 53.576 53.306 80.377zM99.69 121.59L60.795 82.693l21.899-21.899L121.59 99.69l-21.9 21.9zm25.24 23.677l-11.072-18.02c-1.804-2.317-4.12-.782-4.39 0l-3.852-3.88 17.778-17.777 3.852 3.851c-.781 0-2.317 2.829 0 4.39l18.02 11.072 12.633 32.97-32.97-12.606z"/>
    </g>
</svg>